<svg version="1.1" id="Layer_1" xmlns="http://www.w3.org/2000/svg" xmlns:xlink="http://www.w3.org/1999/xlink" x="0px" y="0px"
	 width="100%" viewBox="0 0 1000 1000" enable-background="new 0 0 1000 1000" xml:space="preserve">
<path fill="#000000" opacity="1.000000" stroke="none" 
	d="
M436.000000,1001.000000 
	C290.666656,1001.000000 145.833328,1001.000000 1.000000,1001.000000 
	C1.000000,667.666687 1.000000,334.333344 1.000000,1.000000 
	C334.333344,1.000000 667.666687,1.000000 1001.000000,1.000000 
	C1001.000000,334.333344 1001.000000,667.666687 1001.000000,1001.000000 
	C812.833313,1001.000000 624.666687,1001.000000 436.000000,1001.000000 
M66.676743,369.238892 
	C66.676743,369.238892 66.312836,369.422272 65.547348,369.329956 
	C58.860397,370.792664 58.662994,376.605865 58.645401,381.348328 
	C58.422947,441.311249 58.469799,501.275269 58.520813,561.238953 
	C58.525600,566.861084 60.526588,571.916870 65.754219,574.556335 
	C70.136497,576.768860 74.868637,579.150757 79.622726,579.604431 
	C94.349915,581.009705 109.163956,582.250244 123.939568,582.198792 
	C139.566147,582.144470 155.202393,580.724548 170.802322,579.494324 
	C175.986450,579.085449 181.071274,577.417664 186.801529,576.250488 
	C187.204269,576.232178 187.607010,576.213867 188.664169,576.643677 
	C198.526276,575.055481 208.393707,573.498779 218.242661,571.832886 
	C219.283157,571.656921 220.215286,570.840393 221.798737,570.244751 
	C222.201157,570.210083 222.603561,570.175415 223.629974,570.564209 
	C228.142883,569.668640 232.693878,568.930420 237.161697,567.848572 
	C251.823013,564.298462 266.530273,560.901184 281.072937,556.909729 
	C292.914337,553.659668 304.579834,549.748352 316.259521,545.934937 
	C329.648651,541.563416 343.050690,537.206909 356.295349,532.423523 
	C372.163788,526.692627 387.922180,520.646484 403.635315,514.499207 
	C420.014954,508.091125 436.317230,501.481506 452.591064,494.808105 
	C466.545197,489.085938 480.463898,483.269775 494.290070,477.246887 
	C499.662201,474.906677 504.532928,475.499542 509.633484,477.852173 
	C515.807800,480.700073 522.080505,483.346405 528.380859,485.907166 
	C547.726868,493.770172 567.027466,501.754028 586.492859,509.311951 
	C611.050171,518.846924 635.573425,528.522705 660.444763,537.180115 
	C683.453735,545.189270 706.748901,552.481873 730.204590,559.069824 
	C749.988342,564.626526 770.176331,568.748840 790.209717,573.401367 
	C791.705627,573.748779 793.397461,573.252869 795.603516,573.184082 
	C796.005615,573.226135 796.407654,573.268250 797.222656,573.861877 
	C814.962952,576.137390 832.662903,578.818848 850.453491,580.588745 
	C874.317017,582.962646 898.255798,583.076416 922.056763,579.715271 
	C929.011047,578.733154 936.266968,577.327393 940.995728,569.944763 
	C941.626465,566.604004 942.803162,563.263916 942.806946,559.922546 
	C942.873779,500.590210 942.643066,441.256958 942.929443,381.926147 
	C942.969849,373.557281 939.103821,368.970856 932.364136,366.393646 
	C926.993103,364.339813 921.110413,362.643494 915.427551,362.555450 
	C891.123291,362.179016 866.798401,362.051483 842.502869,362.679626 
	C831.410095,362.966400 820.305664,364.839539 809.318237,366.665466 
	C794.578003,369.115021 779.883911,371.931458 765.285706,375.120148 
	C751.668091,378.094635 738.101013,381.406769 724.695374,385.216736 
	C708.886658,389.709717 693.222107,394.734314 677.595093,399.834839 
	C664.662415,404.055969 651.814819,408.557770 639.039917,413.236633 
	C625.797302,418.086884 612.664734,423.241638 599.527222,428.373718 
	C590.261597,431.993256 581.044189,435.739594 571.849487,439.536377 
	C563.884705,442.825287 556.007385,446.325623 548.046448,449.623932 
	C535.780884,454.705597 523.523621,459.813995 511.161713,464.652710 
	C507.247620,466.184784 502.348053,468.794403 499.037598,467.641937 
	C485.747650,463.015015 472.915466,457.078491 459.892395,451.678314 
	C445.947479,445.895813 432.032776,440.034668 418.004364,434.460907 
	C403.657867,428.760742 389.221741,423.281158 374.764923,417.865051 
	C361.418823,412.865082 348.095703,407.769287 334.577332,403.272186 
	C316.810883,397.361908 298.938202,391.740265 280.969482,386.478424 
	C266.794067,382.327393 252.544296,378.204102 238.077011,375.329193 
	C216.728516,371.086792 195.215500,367.548767 173.656845,364.539825 
	C162.901321,363.038696 151.889008,363.377594 140.225784,362.885559 
	C139.204285,362.839783 138.182785,362.794037 136.714493,362.159485 
	C136.249725,361.994141 135.782440,361.677612 135.320572,361.685303 
	C118.109070,361.971191 100.866539,361.790527 83.704865,362.880157 
	C78.038857,363.239960 72.581696,366.889008 66.676743,369.238892 
z"/>
<path fill="#B1B1B1" opacity="1.000000" stroke="none" 
	d="
M188.009735,576.195557 
	C187.607010,576.213867 187.204269,576.232178 186.069763,576.132935 
	C179.411942,576.593384 173.495026,577.302917 167.557480,577.715271 
	C160.661407,578.194275 153.747223,578.412354 147.061813,578.451538 
	C148.908829,577.888489 150.527283,577.554077 152.162262,577.356506 
	C169.161850,575.302490 186.177048,573.371033 203.159058,571.181763 
	C209.743439,570.332947 216.308075,569.154419 222.787033,567.703308 
	C234.439484,565.093384 246.047211,562.269836 257.623077,559.336121 
	C267.270538,556.891113 276.907684,554.366943 286.436768,551.503052 
	C297.887177,548.061829 309.234344,544.272522 320.596527,540.543518 
	C331.626404,536.923462 342.662659,533.314209 353.614258,529.467102 
	C363.304993,526.062988 372.900726,522.384827 382.506348,518.743103 
	C394.432556,514.221497 406.397186,509.788849 418.214630,504.995880 
	C432.015472,499.398529 445.635742,493.357544 459.408752,487.689789 
	C470.741608,483.026215 482.192139,478.649109 493.562500,474.075348 
	C494.703705,473.616302 495.650757,472.674500 497.473358,471.413239 
	C494.351074,469.955322 492.035065,468.761414 489.633972,467.774567 
	C483.195190,465.128235 476.694519,462.631989 470.264099,459.965942 
	C451.750671,452.290222 433.351318,444.330231 414.733765,436.917450 
	C396.842224,429.793762 378.712463,423.270294 360.736145,416.356323 
	C356.312439,414.654938 352.078308,412.460724 348.130188,410.405487 
	C359.146881,414.131042 369.922546,417.614288 380.410339,421.816132 
	C419.162750,437.341919 457.795990,453.165283 496.566345,468.645599 
	C499.184143,469.690857 502.934937,469.745270 505.536407,468.704681 
	C538.876038,455.368561 572.016113,441.531769 605.388733,428.280182 
	C626.246338,419.998108 647.132263,411.608643 668.504700,404.844818 
	C698.932861,395.215118 729.810181,387.000916 760.523254,378.279541 
	C763.984436,377.296692 767.624817,376.944611 771.022217,376.601227 
	C770.114685,377.256165 769.400635,377.738068 768.614197,377.944702 
	C754.145386,381.746246 739.590088,385.242950 725.211853,389.358917 
	C707.021301,394.566132 688.851135,399.903931 670.900208,405.871368 
	C654.726318,411.248077 638.822754,417.451050 622.868225,423.470764 
	C605.496033,430.025330 588.135376,436.620483 570.893616,443.508179 
	C553.640015,450.400574 536.528198,457.649048 519.379211,464.801331 
	C514.614502,466.788574 509.938477,468.988647 504.423615,471.446869 
	C506.218628,472.628693 506.956696,473.300568 507.824310,473.658142 
	C522.113953,479.547363 536.426575,485.380798 550.720276,491.260284 
	C564.687500,497.005402 578.572144,502.958374 592.617615,508.504547 
	C605.256287,513.495178 618.044250,518.111450 630.802002,522.795715 
	C646.605774,528.598328 662.394104,534.450867 678.292175,539.985779 
	C686.735413,542.925232 695.366333,545.344055 703.965820,547.812500 
	C720.538818,552.569580 737.060120,557.550781 753.774414,561.757385 
	C766.171326,564.877441 778.855591,566.842896 791.376221,569.491211 
	C795.038757,570.265869 798.579041,571.618286 801.740234,572.844727 
	C799.806641,573.092407 798.308167,573.201355 796.809753,573.310303 
	C796.407654,573.268250 796.005615,573.226135 795.042236,572.895020 
	C765.597229,565.411194 736.638184,558.501953 707.862122,550.899841 
	C693.729248,547.166199 679.834290,542.439880 666.014893,537.635620 
	C649.687317,531.959473 633.478577,525.917542 617.361328,519.665466 
	C594.885071,510.946533 572.500366,501.986847 550.154846,492.936798 
	C534.581421,486.629517 519.156616,479.955902 503.608978,473.583649 
	C502.234619,473.020355 500.238556,472.979797 498.874207,473.536713 
	C480.570831,481.007385 462.364868,488.716675 444.061096,496.186279 
	C424.814087,504.040833 405.648163,512.135010 386.156403,519.338562 
	C361.050598,528.617004 335.815887,537.612061 310.335999,545.792725 
	C289.291779,552.549255 267.820374,557.979736 246.518021,563.925293 
	C238.710617,566.104370 230.845032,568.075012 223.005981,570.140686 
	C222.603561,570.175415 222.201157,570.210083 221.088043,570.126343 
	C212.734818,571.264465 205.077774,572.440430 197.456665,573.815613 
	C194.268356,574.390930 191.156418,575.389465 188.009735,576.195557 
z"/>
<path fill="#515151" opacity="1.000000" stroke="none" 
	d="
M771.182068,376.300049 
	C767.624817,376.944611 763.984436,377.296692 760.523254,378.279541 
	C729.810181,387.000916 698.932861,395.215118 668.504700,404.844818 
	C647.132263,411.608643 626.246338,419.998108 605.388733,428.280182 
	C572.016113,441.531769 538.876038,455.368561 505.536407,468.704681 
	C502.934937,469.745270 499.184143,469.690857 496.566345,468.645599 
	C457.795990,453.165283 419.162750,437.341919 380.410339,421.816132 
	C369.922546,417.614288 359.146881,414.131042 347.840302,410.324707 
	C346.782562,410.259521 346.387848,410.187561 345.817749,409.802856 
	C343.828827,408.694397 342.064270,407.752106 340.193726,407.127319 
	C329.627411,403.597961 319.099762,399.932312 308.437836,396.714569 
	C291.724396,391.670502 275.030029,386.488983 258.113312,382.213562 
	C240.703156,377.813416 223.089920,374.154266 205.459595,370.713745 
	C196.377533,368.941406 187.065140,368.349274 177.544876,367.198151 
	C176.816086,367.151794 176.399231,367.131165 175.669098,366.851532 
	C173.725479,366.369904 172.099762,366.103119 170.464035,365.931885 
	C160.641571,364.903809 150.816833,363.897675 140.992844,362.884186 
	C151.889008,363.377594 162.901321,363.038696 173.656845,364.539825 
	C195.215500,367.548767 216.728516,371.086792 238.077011,375.329193 
	C252.544296,378.204102 266.794067,382.327393 280.969482,386.478424 
	C298.938202,391.740265 316.810883,397.361908 334.577332,403.272186 
	C348.095703,407.769287 361.418823,412.865082 374.764923,417.865051 
	C389.221741,423.281158 403.657867,428.760742 418.004364,434.460907 
	C432.032776,440.034668 445.947479,445.895813 459.892395,451.678314 
	C472.915466,457.078491 485.747650,463.015015 499.037598,467.641937 
	C502.348053,468.794403 507.247620,466.184784 511.161713,464.652710 
	C523.523621,459.813995 535.780884,454.705597 548.046448,449.623932 
	C556.007385,446.325623 563.884705,442.825287 571.849487,439.536377 
	C581.044189,435.739594 590.261597,431.993256 599.527222,428.373718 
	C612.664734,423.241638 625.797302,418.086884 639.039917,413.236633 
	C651.814819,408.557770 664.662415,404.055969 677.595093,399.834839 
	C693.222107,394.734314 708.886658,389.709717 724.695374,385.216736 
	C738.101013,381.406769 751.668091,378.094635 765.285706,375.120148 
	C779.883911,371.931458 794.578003,369.115021 809.318237,366.665466 
	C820.305664,364.839539 831.410095,362.966400 842.502869,362.679626 
	C866.798401,362.051483 891.123291,362.179016 915.427551,362.555450 
	C921.110413,362.643494 926.993103,364.339813 932.364136,366.393646 
	C939.103821,368.970856 942.969849,373.557281 942.929443,381.926147 
	C942.643066,441.256958 942.873779,500.590210 942.806946,559.922546 
	C942.803162,563.263916 941.626465,566.604004 940.507080,569.980225 
	C940.018372,570.015625 939.671448,569.717834 939.767273,569.429810 
	C939.892761,568.748291 939.922424,568.354919 940.134033,567.584351 
	C940.522522,564.733337 940.909302,562.259460 940.909485,559.785522 
	C940.912842,500.236786 940.849609,440.687988 940.904175,381.139343 
	C940.907654,377.360718 940.141541,374.261017 936.959473,371.628204 
	C933.179749,369.557312 929.618225,366.964813 925.722290,366.282806 
	C917.072021,364.768585 908.273865,363.690399 899.500977,363.357391 
	C865.813904,362.078644 832.335205,364.565155 799.119995,370.234192 
	C790.336853,371.733246 781.710815,374.152496 772.706116,376.156494 
	C771.993774,376.209229 771.587891,376.254639 771.182068,376.300049 
z"/>
<path fill="#515151" opacity="1.000000" stroke="none" 
	d="
M223.317978,570.352417 
	C230.845032,568.075012 238.710617,566.104370 246.518021,563.925293 
	C267.820374,557.979736 289.291779,552.549255 310.335999,545.792725 
	C335.815887,537.612061 361.050598,528.617004 386.156403,519.338562 
	C405.648163,512.135010 424.814087,504.040833 444.061096,496.186279 
	C462.364868,488.716675 480.570831,481.007385 498.874207,473.536713 
	C500.238556,472.979797 502.234619,473.020355 503.608978,473.583649 
	C519.156616,479.955902 534.581421,486.629517 550.154846,492.936798 
	C572.500366,501.986847 594.885071,510.946533 617.361328,519.665466 
	C633.478577,525.917542 649.687317,531.959473 666.014893,537.635620 
	C679.834290,542.439880 693.729248,547.166199 707.862122,550.899841 
	C736.638184,558.501953 765.597229,565.411194 794.739502,572.877441 
	C793.397461,573.252869 791.705627,573.748779 790.209717,573.401367 
	C770.176331,568.748840 749.988342,564.626526 730.204590,559.069824 
	C706.748901,552.481873 683.453735,545.189270 660.444763,537.180115 
	C635.573425,528.522705 611.050171,518.846924 586.492859,509.311951 
	C567.027466,501.754028 547.726868,493.770172 528.380859,485.907166 
	C522.080505,483.346405 515.807800,480.700073 509.633484,477.852173 
	C504.532928,475.499542 499.662201,474.906677 494.290070,477.246887 
	C480.463898,483.269775 466.545197,489.085938 452.591064,494.808105 
	C436.317230,501.481506 420.014954,508.091125 403.635315,514.499207 
	C387.922180,520.646484 372.163788,526.692627 356.295349,532.423523 
	C343.050690,537.206909 329.648651,541.563416 316.259521,545.934937 
	C304.579834,549.748352 292.914337,553.659668 281.072937,556.909729 
	C266.530273,560.901184 251.823013,564.298462 237.161697,567.848572 
	C232.693878,568.930420 228.142883,569.668640 223.317978,570.352417 
z"/>
<path fill="#515151" opacity="1.000000" stroke="none" 
	d="
M146.840912,578.743713 
	C153.747223,578.412354 160.661407,578.194275 167.557480,577.715271 
	C173.495026,577.302917 179.411942,576.593384 185.769745,576.170410 
	C181.071274,577.417664 175.986450,579.085449 170.802322,579.494324 
	C155.202393,580.724548 139.566147,582.144470 123.939568,582.198792 
	C109.163956,582.250244 94.349915,581.009705 79.622726,579.604431 
	C74.868637,579.150757 70.136497,576.768860 65.754219,574.556335 
	C60.526588,571.916870 58.525600,566.861084 58.520813,561.238953 
	C58.469799,501.275269 58.422947,441.311249 58.645401,381.348328 
	C58.662994,376.605865 58.860397,370.792664 65.842674,369.682037 
	C65.049866,371.311157 63.961735,372.588165 62.749634,374.142517 
	C62.485016,374.799377 62.344368,375.178955 61.917595,375.825897 
	C61.400188,377.720978 60.967758,379.348572 60.966660,380.976410 
	C60.925835,441.432037 60.914040,501.887726 60.974308,562.343323 
	C60.976006,564.045471 61.804890,565.746826 62.351707,567.716431 
	C62.644878,568.316284 62.834404,568.648315 63.031860,569.328003 
	C71.438499,578.143494 82.143898,578.956360 93.463623,578.783386 
	C94.182823,578.833557 94.594566,578.851074 95.339096,579.110107 
	C109.362236,579.497620 123.052414,579.678589 136.743164,579.746460 
	C138.490356,579.755127 140.240494,579.173767 142.393951,578.867676 
	C144.146072,578.827637 145.493484,578.785645 146.840912,578.743713 
z"/>
<path fill="#515151" opacity="1.000000" stroke="none" 
	d="
M797.016235,573.586060 
	C798.308167,573.201355 799.806641,573.092407 802.044189,572.887573 
	C803.192383,572.797363 803.601501,572.802979 804.289551,573.073853 
	C810.777405,574.116638 816.986145,574.894165 823.495728,575.714966 
	C824.199768,575.795227 824.603088,575.832214 825.309814,576.130676 
	C835.135925,577.161011 844.658508,577.929810 854.582764,578.722778 
	C856.325317,578.779053 857.666382,578.811157 859.342773,579.080688 
	C874.358948,579.439453 889.039673,579.573242 903.720703,579.646057 
	C904.475281,579.649780 905.232483,579.131714 906.343018,578.854736 
	C907.404053,578.799316 908.110657,578.745667 909.253296,578.873230 
	C918.706421,578.700317 927.713379,578.305664 935.682007,572.569336 
	C936.242615,572.241211 936.548096,572.028442 937.151978,571.776001 
	C938.190796,571.063538 938.931091,570.390686 939.671448,569.717834 
	C939.671448,569.717834 940.018372,570.015625 940.192322,570.164612 
	C936.266968,577.327393 929.011047,578.733154 922.056763,579.715271 
	C898.255798,583.076416 874.317017,582.962646 850.453491,580.588745 
	C832.662903,578.818848 814.962952,576.137390 797.016235,573.586060 
z"/>
<path fill="#B1B1B1" opacity="1.000000" stroke="none" 
	d="
M62.873596,373.865173 
	C63.961735,372.588165 65.049866,371.311157 66.225418,369.728210 
	C66.312836,369.422272 66.676743,369.238892 67.234581,369.200012 
	C71.093040,368.112244 74.337776,366.418732 77.704025,366.126892 
	C91.719025,364.911835 105.766388,364.048370 119.810829,363.205109 
	C125.582649,362.858551 131.377121,362.889191 137.161285,362.748291 
	C138.182785,362.794037 139.204285,362.839783 140.609314,362.884888 
	C150.816833,363.897675 160.641571,364.903809 170.464035,365.931885 
	C172.099762,366.103119 173.725479,366.369904 175.323196,367.060089 
	C170.812973,367.399078 166.300003,367.586212 161.863724,367.088959 
	C138.841736,364.508545 115.771736,363.640350 92.700890,365.790314 
	C85.017723,366.506317 77.440567,368.613861 69.896690,370.425629 
	C67.422981,371.019714 65.207283,372.688080 62.873596,373.865173 
z"/>
<path fill="#515151" opacity="1.000000" stroke="none" 
	d="
M136.937897,362.453857 
	C131.377121,362.889191 125.582649,362.858551 119.810829,363.205109 
	C105.766388,364.048370 91.719025,364.911835 77.704025,366.126892 
	C74.337776,366.418732 71.093040,368.112244 67.410736,369.097626 
	C72.581696,366.889008 78.038857,363.239960 83.704865,362.880157 
	C100.866539,361.790527 118.109070,361.971191 135.320572,361.685303 
	C135.782440,361.677612 136.249725,361.994141 136.937897,362.453857 
z"/>
<path fill="#515151" opacity="1.000000" stroke="none" 
	d="
M188.336945,576.419617 
	C191.156418,575.389465 194.268356,574.390930 197.456665,573.815613 
	C205.077774,572.440430 212.734818,571.264465 220.787506,570.164551 
	C220.215286,570.840393 219.283157,571.656921 218.242661,571.832886 
	C208.393707,573.498779 198.526276,575.055481 188.336945,576.419617 
z"/>
<path fill="#FEFEFE" opacity="1.000000" stroke="none" 
	d="
M859.007385,578.843262 
	C857.666382,578.811157 856.325317,578.779053 854.355347,578.438721 
	C847.713806,577.295166 841.719666,576.263794 835.681885,575.699280 
	C832.159485,575.369995 828.567200,575.787598 825.006409,575.869141 
	C824.603088,575.832214 824.199768,575.795227 823.283447,575.433960 
	C816.517212,574.342651 810.263855,573.575623 804.010559,572.808594 
	C803.601501,572.802979 803.192383,572.797363 802.479370,572.748779 
	C798.579041,571.618286 795.038757,570.265869 791.376221,569.491211 
	C778.855591,566.842896 766.171326,564.877441 753.774414,561.757385 
	C737.060120,557.550781 720.538818,552.569580 703.965820,547.812500 
	C695.366333,545.344055 686.735413,542.925232 678.292175,539.985779 
	C662.394104,534.450867 646.605774,528.598328 630.802002,522.795715 
	C618.044250,518.111450 605.256287,513.495178 592.617615,508.504547 
	C578.572144,502.958374 564.687500,497.005402 550.720276,491.260284 
	C536.426575,485.380798 522.113953,479.547363 507.824310,473.658142 
	C506.956696,473.300568 506.218628,472.628693 504.423615,471.446869 
	C509.938477,468.988647 514.614502,466.788574 519.379211,464.801331 
	C536.528198,457.649048 553.640015,450.400574 570.893616,443.508179 
	C588.135376,436.620483 605.496033,430.025330 622.868225,423.470764 
	C638.822754,417.451050 654.726318,411.248077 670.900208,405.871368 
	C688.851135,399.903931 707.021301,394.566132 725.211853,389.358917 
	C739.590088,385.242950 754.145386,381.746246 768.614197,377.944702 
	C769.400635,377.738068 770.114685,377.256165 771.022217,376.601257 
	C771.587891,376.254639 771.993774,376.209229 773.017151,376.370544 
	C775.779602,376.419678 777.956360,376.443420 780.064087,376.073883 
	C790.201904,374.296265 800.261292,371.923035 810.460266,370.674164 
	C828.450378,368.471191 846.485291,366.138672 864.567932,365.307404 
	C888.936096,364.187225 913.520996,362.813293 937.025940,371.973450 
	C940.141541,374.261017 940.907654,377.360718 940.904175,381.139343 
	C940.849609,440.687988 940.912842,500.236786 940.909485,559.785522 
	C940.909302,562.259460 940.522522,564.733337 939.800903,567.627686 
	C938.475159,569.303955 937.664368,570.559753 936.853516,571.815552 
	C936.548096,572.028442 936.242615,572.241211 935.305420,572.416687 
	C929.061279,573.786865 923.453125,575.212158 917.834473,576.594727 
	C914.838074,577.331970 911.823547,577.995300 908.817200,578.692017 
	C908.110657,578.745667 907.404053,578.799316 906.002808,578.626831 
	C891.149658,578.309021 876.991272,578.198425 862.832581,578.158020 
	C861.558228,578.154419 860.282471,578.604126 859.007385,578.843262 
z"/>
<path fill="#FEFEFE" opacity="1.000000" stroke="none" 
	d="
M62.749630,374.142517 
	C65.207283,372.688080 67.422981,371.019714 69.896690,370.425629 
	C77.440567,368.613861 85.017723,366.506317 92.700890,365.790314 
	C115.771736,363.640350 138.841736,364.508545 161.863724,367.088959 
	C166.300003,367.586212 170.812973,367.399078 175.636475,367.319092 
	C176.399231,367.131165 176.816086,367.151794 177.728119,367.493530 
	C180.618484,368.459290 182.981201,369.286865 185.414185,369.718262 
	C198.487915,372.036407 211.676941,373.804871 224.641190,376.616119 
	C243.765945,380.763275 262.887451,385.082672 281.726440,390.345032 
	C299.741150,395.377197 317.380188,401.748657 335.215485,407.433777 
	C338.735352,408.555786 342.396942,409.233154 345.993164,410.115570 
	C346.387848,410.187561 346.782562,410.259521 347.467163,410.412262 
	C352.078308,412.460724 356.312439,414.654938 360.736145,416.356323 
	C378.712463,423.270294 396.842224,429.793762 414.733765,436.917450 
	C433.351318,444.330231 451.750671,452.290222 470.264099,459.965942 
	C476.694519,462.631989 483.195190,465.128235 489.633972,467.774567 
	C492.035065,468.761414 494.351074,469.955322 497.473358,471.413239 
	C495.650757,472.674500 494.703705,473.616302 493.562500,474.075348 
	C482.192139,478.649109 470.741608,483.026215 459.408752,487.689789 
	C445.635742,493.357544 432.015472,499.398529 418.214630,504.995880 
	C406.397186,509.788849 394.432556,514.221497 382.506348,518.743103 
	C372.900726,522.384827 363.304993,526.062988 353.614258,529.467102 
	C342.662659,533.314209 331.626404,536.923462 320.596527,540.543518 
	C309.234344,544.272522 297.887177,548.061829 286.436768,551.503052 
	C276.907684,554.366943 267.270538,556.891113 257.623077,559.336121 
	C246.047211,562.269836 234.439484,565.093384 222.787033,567.703308 
	C216.308075,569.154419 209.743439,570.332947 203.159058,571.181763 
	C186.177048,573.371033 169.161850,575.302490 152.162262,577.356506 
	C150.527283,577.554077 148.908829,577.888489 147.061813,578.451538 
	C145.493484,578.785645 144.146072,578.827637 142.058914,578.630127 
	C126.979668,578.307373 112.640198,578.207703 98.300568,578.172974 
	C97.203056,578.170349 96.104424,578.625977 95.006317,578.868591 
	C94.594566,578.851074 94.182823,578.833557 93.256119,578.489380 
	C82.570160,575.960449 71.804375,575.682922 63.023926,568.980286 
	C62.834404,568.648315 62.644878,568.316284 62.488602,567.235291 
	C62.585152,564.821533 62.703571,563.156799 62.703804,561.492065 
	C62.712151,501.162415 62.713478,440.832764 62.687199,380.503113 
	C62.686481,378.854858 62.371925,377.206696 62.203720,375.558502 
	C62.344368,375.178955 62.485016,374.799377 62.749630,374.142517 
z"/>
<path fill="#B1B1B1" opacity="1.000000" stroke="none" 
	d="
M345.817749,409.802856 
	C342.396942,409.233154 338.735352,408.555786 335.215485,407.433777 
	C317.380188,401.748657 299.741150,395.377197 281.726440,390.345032 
	C262.887451,385.082672 243.765945,380.763275 224.641190,376.616119 
	C211.676941,373.804871 198.487915,372.036407 185.414185,369.718262 
	C182.981201,369.286865 180.618484,368.459290 178.040070,367.519226 
	C187.065140,368.349274 196.377533,368.941406 205.459595,370.713745 
	C223.089920,374.154266 240.703156,377.813416 258.113312,382.213562 
	C275.030029,386.488983 291.724396,391.670502 308.437836,396.714569 
	C319.099762,399.932312 329.627411,403.597961 340.193726,407.127319 
	C342.064270,407.752106 343.828827,408.694397 345.817749,409.802856 
z"/>
<path fill="#B1B1B1" opacity="1.000000" stroke="none" 
	d="
M936.959473,371.628204 
	C913.520996,362.813293 888.936096,364.187225 864.567932,365.307404 
	C846.485291,366.138672 828.450378,368.471191 810.460266,370.674164 
	C800.261292,371.923035 790.201904,374.296265 780.064087,376.073883 
	C777.956360,376.443420 775.779602,376.419678 773.323669,376.363190 
	C781.710815,374.152496 790.336853,371.733246 799.119995,370.234192 
	C832.335205,364.565155 865.813904,362.078644 899.500977,363.357391 
	C908.273865,363.690399 917.072021,364.768585 925.722290,366.282806 
	C929.618225,366.964813 933.179749,369.557312 936.959473,371.628204 
z"/>
<path fill="#B1B1B1" opacity="1.000000" stroke="none" 
	d="
M937.151978,571.776001 
	C937.664368,570.559753 938.475159,569.303955 939.619019,568.004822 
	C939.922424,568.354919 939.892761,568.748291 939.767273,569.429810 
	C938.931091,570.390686 938.190796,571.063538 937.151978,571.776001 
z"/>
<path fill="#B1B1B1" opacity="1.000000" stroke="none" 
	d="
M61.917595,375.825897 
	C62.371925,377.206696 62.686481,378.854858 62.687199,380.503113 
	C62.713478,440.832764 62.712151,501.162415 62.703804,561.492065 
	C62.703571,563.156799 62.585152,564.821533 62.384956,566.967407 
	C61.804890,565.746826 60.976006,564.045471 60.974308,562.343323 
	C60.914040,501.887726 60.925835,441.432037 60.966660,380.976410 
	C60.967758,379.348572 61.400188,377.720978 61.917595,375.825897 
z"/>
<path fill="#B1B1B1" opacity="1.000000" stroke="none" 
	d="
M95.339096,579.110107 
	C96.104424,578.625977 97.203056,578.170349 98.300568,578.172974 
	C112.640198,578.207703 126.979668,578.307373 141.654236,578.628235 
	C140.240494,579.173767 138.490356,579.755127 136.743164,579.746460 
	C123.052414,579.678589 109.362236,579.497620 95.339096,579.110107 
z"/>
<path fill="#B1B1B1" opacity="1.000000" stroke="none" 
	d="
M63.031860,569.328003 
	C71.804375,575.682922 82.570160,575.960449 92.948669,578.456787 
	C82.143898,578.956360 71.438499,578.143494 63.031860,569.328003 
z"/>
<path fill="#B1B1B1" opacity="1.000000" stroke="none" 
	d="
M859.342773,579.080750 
	C860.282471,578.604126 861.558228,578.154419 862.832581,578.158020 
	C876.991272,578.198425 891.149658,578.309021 905.648315,578.628601 
	C905.232483,579.131714 904.475281,579.649780 903.720703,579.646057 
	C889.039673,579.573242 874.358948,579.439453 859.342773,579.080750 
z"/>
<path fill="#B1B1B1" opacity="1.000000" stroke="none" 
	d="
M825.309814,576.130615 
	C828.567200,575.787598 832.159485,575.369995 835.681885,575.699280 
	C841.719666,576.263794 847.713806,577.295166 853.953735,578.414551 
	C844.658508,577.929810 835.135925,577.161011 825.309814,576.130615 
z"/>
<path fill="#B1B1B1" opacity="1.000000" stroke="none" 
	d="
M909.253296,578.873230 
	C911.823547,577.995300 914.838074,577.331970 917.834473,576.594727 
	C923.453125,575.212158 929.061279,573.786865 935.050293,572.531982 
	C927.713379,578.305664 918.706421,578.700317 909.253296,578.873230 
z"/>
<path fill="#B1B1B1" opacity="1.000000" stroke="none" 
	d="
M804.289551,573.073853 
	C810.263855,573.575623 816.517212,574.342651 822.982727,575.390686 
	C816.986145,574.894165 810.777405,574.116638 804.289551,573.073853 
z"/>
</svg>